<svg width="450" height="215" viewBox="0 0 450 215"
     xmlns="http://www.w3.org/2000/svg" font-family="'Segoe UI', Ubuntu, 'Helvetica Neue', Helvetica, Arial, sans-serif" role="img"
     aria-label="Estatísticas do GitHub">
  <defs>
    <filter id="cardShadow" x="-8%" y="-8%" width="116%" height="120%">
      <feDropShadow dx="0" dy="2" stdDeviation="4"
                    flood-color="#FF1493" flood-opacity="0.15"/>
    </filter>
  </defs>
  <rect x="1" y="1" rx="14" width="448" height="213"
        fill="#FFF5F8" stroke="#FFC4DA" stroke-width="1"
        filter="url(#cardShadow)"/>
  <text x="30" y="42" font-size="19" font-weight="700"
        fill="#FF1493">Estatísticas do GitHub</text>
  <line x1="30" y1="56" x2="300" y2="56"
        stroke="#FFC4DA" stroke-width="1.5"/>
  
        <g transform="translate(30, 82)">
          
        <circle cx="12" cy="-5" r="10.0" fill="#FF1493"/>
        <g transform="translate(4.0, -13.0)"><path d="M8 1.5 L9.8 5.6 L14.2 6 L10.9 8.9 L11.9 13.3 L8 11 L4.1 13.3 L5.1 8.9 L1.8 6 L6.2 5.6 Z" fill="white" stroke="none"/></g>
          <text x="34" fill="#333333" font-size="14">Estrelas ganhas</text>
          <text x="270" text-anchor="end" fill="#333333"
                font-size="14" font-weight="600">1</text>
        </g>
        <g transform="translate(30, 106)">
          
        <circle cx="12" cy="-5" r="10.0" fill="#FF1493"/>
        <g transform="translate(4.0, -13.0)"><path d="M1.5 8 H5.3 M10.7 8 H14.5" stroke="white" stroke-width="1.6" stroke-linecap="round" fill="none"/><circle cx="8" cy="8" r="2.3" fill="none" stroke="white" stroke-width="1.6"/></g>
          <text x="34" fill="#333333" font-size="14">Commits</text>
          <text x="270" text-anchor="end" fill="#333333"
                font-size="14" font-weight="600">493</text>
        </g>
        <g transform="translate(30, 130)">
          
        <circle cx="12" cy="-5" r="10.0" fill="#FF1493"/>
        <g transform="translate(4.0, -13.0)"><path d="M4 3 V13 M4 3 C4 3 4 6 7 6 H10.5 M10.5 4 L12.5 6 L10.5 8" stroke="white" stroke-width="1.5" stroke-linecap="round" stroke-linejoin="round" fill="none"/><circle cx="4" cy="3" r="1.6" fill="white"/><circle cx="4" cy="13" r="1.6" fill="white"/><circle cx="10.5" cy="4" r="1.3" fill="white"/></g>
          <text x="34" fill="#333333" font-size="14">Pull Requests</text>
          <text x="270" text-anchor="end" fill="#333333"
                font-size="14" font-weight="600">9</text>
        </g>
        <g transform="translate(30, 154)">
          
        <circle cx="12" cy="-5" r="10.0" fill="#FF1493"/>
        <g transform="translate(4.0, -13.0)"><circle cx="8" cy="8" r="6.3" fill="none" stroke="white" stroke-width="1.5"/><path d="M8 4.8 V8.6 M8 11 V11.05" stroke="white" stroke-width="1.6" stroke-linecap="round" fill="none"/></g>
          <text x="34" fill="#333333" font-size="14">Issues</text>
          <text x="270" text-anchor="end" fill="#333333"
                font-size="14" font-weight="600">1</text>
        </g>
        <g transform="translate(30, 178)">
          
        <circle cx="12" cy="-5" r="10.0" fill="#FF1493"/>
        <g transform="translate(4.0, -13.0)"><path d="M8 1.8 L14 4.8 V11.2 L8 14.2 L2 11.2 V4.8 Z M2 4.8 L8 7.8 L14 4.8 M8 7.8 V14.2" fill="none" stroke="white" stroke-width="1.4" stroke-linecap="round" stroke-linejoin="round"/></g>
          <text x="34" fill="#333333" font-size="14">Repositórios</text>
          <text x="270" text-anchor="end" fill="#333333"
                font-size="14" font-weight="600">13</text>
        </g>
  <g transform="translate(378, 132)">
    <circle r="35" fill="none" stroke="#FF1493" stroke-width="6"
            opacity="0.18"/>
    <circle r="35" fill="none" stroke="#FF1493" stroke-width="6"
            stroke-linecap="round"
            stroke-dasharray="220" stroke-dashoffset="55"
            transform="rotate(-90)"/>
    <text text-anchor="middle" dy="7" font-size="22" font-weight="700"
          fill="#FF1493">B</text>
  </g>
</svg>